
<svg version="1.0" xmlns="http://www.w3.org/2000/svg"
 width="500.000000pt" height="500.000000pt" viewBox="0 0 500.000000 500.000000"
 preserveAspectRatio="xMidYMid meet">

<g transform="translate(0.000000,500.000000) scale(0.100000,-0.100000)"
fill="#000000" stroke="none">
<path d="M703 4491 c-119 -30 -197 -132 -197 -256 0 -103 46 -181 135 -230
114 -61 263 -26 336 79 18 27 36 60 39 75 3 14 7 32 10 39 3 9 306 12 1474 12
l1470 0 0 25 0 25 -1470 0 c-1168 0 -1471 3 -1474 13 -3 6 -7 24 -10 38 -10
48 -69 121 -121 150 -55 31 -138 44 -192 30z"/>
<path d="M680 3452 c0 -15 16 -22 80 -37 l80 -18 0 -858 0 -857 -77 -19 c-56
-13 -79 -24 -81 -36 -3 -16 24 -17 378 -17 354 0 381 1 378 17 -2 12 -25 23
-81 36 l-77 19 0 409 0 409 288 -2 287 -3 0 -405 0 -405 -78 -20 c-43 -11 -78
-24 -78 -28 1 -4 1 -11 1 -17 0 -6 132 -10 376 -10 352 0 375 1 372 18 -2 12
-24 22 -81 36 l-77 19 2 856 3 856 78 19 c61 15 77 23 77 37 0 18 -17 19 -374
19 -206 0 -377 -4 -380 -8 -11 -18 13 -31 84 -49 l75 -19 0 -415 0 -414 -287
-3 -288 -2 0 418 0 419 80 18 c64 15 80 22 80 37 0 17 -18 18 -380 18 -362 0
-380 -1 -380 -18z"/>
<path d="M2720 3453 c0 -16 14 -23 80 -38 l80 -18 0 -858 0 -857 -77 -19 c-56
-13 -79 -24 -81 -36 -3 -16 25 -17 387 -17 371 0 391 1 391 18 0 15 -17 22
-90 36 l-90 19 0 373 0 374 88 0 89 0 138 -312 c148 -331 186 -400 250 -447
75 -54 114 -61 351 -61 196 0 215 2 212 17 -2 10 -27 24 -67 38 l-64 21 -122
270 c-148 329 -146 324 -196 373 -72 69 -183 113 -309 123 -63 5 -32 23 53 30
89 8 222 45 298 84 193 97 281 322 212 539 -57 180 -209 285 -489 341 -63 13
-177 17 -561 21 -472 5 -483 4 -483 -14z m801 -57 c85 -18 134 -44 187 -96
159 -160 161 -522 3 -693 -64 -70 -140 -99 -278 -106 l-113 -6 0 458 0 457 68
0 c37 0 97 -7 133 -14z"/>
<path d="M4179 1021 c-91 -18 -174 -99 -200 -193 l-10 -38 -1469 0 -1470 0 0
-25 0 -25 1470 0 c1168 0 1471 -3 1474 -12 3 -7 7 -25 10 -39 12 -54 70 -123
131 -154 178 -92 379 30 379 230 0 72 -13 108 -59 170 -47 64 -168 104 -256
86z"/>
</g>
</svg>
